# xmcd
#
# Track frame offsets:
#	150
#	14975
#	28183
#	41923
#	55125
#	65858
#	81408
#	93893
#	106323
#	119733
#	131730
#	142885
#	156630
#	171140
#	192215
#	206020
#
# Disc length: 2899
#
# Revision: 1
# Processed by: cddbd v1.5.1PL0 Copyright (c) Steve Scherf et al.
# Submitted via: ExactAudioCopy v0.90b4
# Normalized: r0:DSETVAR1,TDELIM( - )
#
DISCID=f80b5110
DTITLE=Various Artist - Kings of the Blues Guitar Vol.3
DYEAR=1994
DGENRE=Blues
TTITLE0=T.Bone Walker - I Got a Break Baby
TTITLE1=Elmore James - Dust My Broom
TTITLE2=Albert King - Bad Luck (Blues)
TTITLE3=Muddy Waters - Louisiana Blues
TTITLE4=B.B. King - Recession Blues
TTITLE5=Lightning Hopkins - Big Car Blues
TTITLE6=Eric Clapton - Highway 49
TTITLE7=Otis Rush - Double Trouble
TTITLE8=Magic Sam - All Your Love
TTITLE9=Jeff Beck - I'm a Man
TTITLE10=John Lee Hooker - This is Hip
TTITLE11=Eddie Taylor - Bad Boy
TTITLE12=Gatemouth Brown - Cross My Heart
TTITLE13=Johnny Winter - Goin' Down Slow
TTITLE14=Jimmy Rogers - Sloppy Drunk
TTITLE15=Buddy Guy - Keep it to Myself
EXTD=
EXTT0=
EXTT1=
EXTT2=
EXTT3=
EXTT4=
EXTT5=
EXTT6=
EXTT7=
EXTT8=
EXTT9=
EXTT10=
EXTT11=
EXTT12=
EXTT13=
EXTT14=
EXTT15=
PLAYORDER=
